# Blender 4.4.0
# www.blender.org
mtllib Pallet.mtl
o Pallet
v -1.858363 -0.150318 1.218886
v 1.470508 -0.150318 1.218886
v -1.858363 -0.150318 1.696746
v 1.470508 -0.016258 1.696746
v 1.470508 -0.150318 1.696746
v -1.858363 -0.150318 -0.214658
v 1.470507 -0.150318 -0.214658
v -1.858363 -0.016258 0.263202
v -1.858363 -0.150318 0.263202
v 1.470508 -0.016258 0.263202
v 1.470508 -0.150318 0.263202
v -1.858363 -0.016258 -1.648201
v -1.858363 -0.150318 -1.648201
v 1.470507 -0.150318 -1.648201
v -1.858363 -0.016258 -1.170342
v -1.858363 -0.150318 -1.170342
v 1.470507 -0.016258 -1.170342
v 1.470507 -0.150318 -1.170342
v -1.675155 -0.016258 -1.170342
v -1.675155 0.238150 -1.170342
v -1.858363 0.238150 -1.170342
v -1.675155 -0.016258 -1.648201
v -1.675155 0.238150 -1.648201
v -1.675154 -0.016258 1.696746
v -1.675154 0.238150 1.696746
v -1.858363 -0.016258 1.696746
v -1.675154 -0.016258 1.218887
v -1.675154 0.238150 1.218887
v -1.858363 -0.016258 1.218887
v -1.858363 0.238150 1.218887
v 1.470508 0.238150 0.263202
v 1.287299 -0.016258 0.263202
v 1.287299 0.238150 0.263202
v 1.470507 -0.016258 -0.214658
v 1.470507 0.238150 -0.214658
v 1.287299 -0.016258 -0.214658
v 1.287299 0.238150 -0.214658
v 1.287299 -0.016258 -1.170342
v 1.287299 0.238150 -1.170342
v 1.470507 -0.016258 -1.648201
v 1.470507 0.238150 -1.648201
v 1.287299 -0.016258 -1.648201
v 1.287299 0.238150 -1.648201
v 1.470508 0.238150 1.696746
v 1.287299 -0.016258 1.696746
v 1.287299 0.238150 1.696746
v 1.470508 -0.016258 1.218886
v 1.470508 0.238150 1.218886
v 1.287299 -0.016258 1.218886
v 1.287299 0.238150 1.218886
v -1.675154 -0.016258 0.263202
v -1.675154 0.238150 0.263202
v -1.858363 0.238150 0.263202
v -1.675155 -0.016258 -0.214657
v -1.675155 0.238150 -0.214657
v -1.858363 -0.016258 -0.214657
v -1.858363 0.379513 1.218886
v 1.470508 0.379513 1.218886
v -1.858363 0.379513 1.696746
v -1.858363 0.238150 1.696746
v 1.470508 0.379513 1.696746
v -1.858363 0.379513 -0.214658
v -1.858363 0.238150 -0.214658
v 1.470507 0.379513 -0.214658
v -1.858363 0.379513 0.263202
v 1.470508 0.379513 0.263202
v -1.858363 0.379513 -1.648201
v -1.858363 0.238150 -1.648201
v 1.470507 0.379513 -1.648201
v -1.858363 0.379513 -1.170342
v 1.470507 0.379513 -1.170342
v 1.470507 0.238150 -1.170342
v -1.858363 0.439096 -1.656374
v -1.858363 0.379513 -1.656374
v -1.348911 0.439096 -1.656374
v -1.348911 0.379513 -1.656374
v -1.858363 0.439096 1.688571
v -1.858363 0.379513 1.688571
v -1.348911 0.439096 1.688571
v 0.963833 0.439096 -1.656374
v 0.963833 0.379513 -1.656374
v 1.473284 0.439096 -1.656374
v 0.963833 0.439096 1.688571
v 1.473285 0.439096 1.688571
v 0.255244 0.439096 -1.656374
v 0.764695 0.439096 -1.656374
v 0.764695 0.379513 -1.656374
v 0.255244 0.439096 1.688571
v 0.764696 0.439096 1.688571
v -0.463542 0.439096 -1.656374
v -0.463542 0.379513 -1.656374
v 0.045910 0.439096 -1.656374
v 0.045910 0.379513 -1.656374
v -0.463542 0.439096 1.688571
v 0.045910 0.439096 1.688571
v 0.045910 0.379513 1.688571
v -1.182977 0.439096 -1.656374
v -1.182977 0.379513 -1.656374
v -0.673524 0.439096 -1.656374
v -1.182976 0.439096 1.688571
v -0.673524 0.439096 1.688571
v -1.348911 0.379513 1.688571
v 1.473284 0.379513 -1.656374
v 0.963833 0.379513 1.688571
v 1.473285 0.379513 1.688571
v 0.255244 0.379513 -1.656374
v 0.255244 0.379513 1.688571
v 0.764696 0.379513 1.688571
v -0.463542 0.379513 1.688571
v -0.673524 0.379513 -1.656374
v -1.182976 0.379513 1.688571
v -0.673524 0.379513 1.688571
vn -0.0000 1.0000 -0.0000
vn 1.0000 -0.0000 -0.0000
vn -0.0000 -0.0000 1.0000
vn -0.0000 -1.0000 -0.0000
vn -0.0000 -0.0000 -1.0000
vn -1.0000 -0.0000 -0.0000
vt -0.237204 0.062259
vt -0.116831 0.062259
vt -0.116831 1.259104
vt -0.237204 1.259104
vt 1.239492 1.427001
vt 1.316905 1.427001
vt 1.316905 1.538353
vt 1.239492 1.538353
vt 1.243110 0.406253
vt 1.324204 0.406253
vt 1.324204 1.544964
vt 1.243110 1.544964
vt -0.233299 0.060630
vt -0.120925 0.060630
vt -0.120925 1.267779
vt -0.233299 1.267779
vt 1.246770 -0.173109
vt 1.322029 -0.173109
vt 1.322029 1.540924
vt 1.246770 1.540924
vt 1.234911 1.413303
vt 1.327687 1.413303
vt 1.327687 1.544177
vt 1.234911 1.544177
vt 0.490929 0.548777
vt 0.509071 0.548777
vt 0.509071 0.566918
vt 0.490929 0.566918
vt 0.465772 0.435244
vt 0.534228 0.435244
vt 0.534228 0.503701
vt 0.465772 0.503701
vt 0.490929 0.585060
vt 0.509071 0.585060
vt 0.509071 0.603202
vt 0.490929 0.603202
vt 0.465772 0.572157
vt 0.534228 0.572157
vt 0.534228 0.640613
vt 0.465772 0.640613
vt 0.215438 0.469854
vt 0.405146 0.469854
vt 0.435755 0.608539
vt 0.215438 0.659562
vt 0.594854 0.469854
vt 0.784562 0.469854
vt 0.784562 0.659562
vt 0.564245 0.608539
vt 0.467279 0.446903
vt 0.532721 0.446903
vt 0.532721 0.512344
vt 0.467279 0.512344
vt 0.376530 0.229313
vt 0.623470 0.229313
vt 0.623470 0.476253
vt 0.376530 0.476253
vt 0.467279 0.577786
vt 0.532721 0.577786
vt 0.510883 0.606827
vt 0.489117 0.606827
vt 0.458932 0.585836
vt 0.541068 0.585836
vt 0.541068 0.667972
vt 0.458932 0.667972
vt -0.188160 0.301073
vt -0.188160 0.497790
vt -0.147777 0.497790
vt -0.147777 0.301073
vt -0.502275 -0.960550
vt -0.502275 0.427212
vt -0.458662 0.427212
vt -0.458662 -0.960550
vt -0.802038 -0.214689
vt -0.802038 -0.017971
vt -0.761655 -0.017971
vt -0.761655 -0.214689
vt -0.506181 -0.946744
vt -0.506181 0.441019
vt -0.462568 0.441019
vt -0.462568 -0.946744
vt -0.922448 0.803838
vt -0.922448 1.053838
vt -0.107909 1.053838
vt -0.107909 0.803838
vt -0.188160 -1.087903
vt -0.188160 -0.891186
vt -0.147777 -0.891186
vt -0.147777 -1.087903
vt -0.789636 -0.382110
vt -0.789636 -0.185393
vt -0.749253 -0.185393
vt -0.749253 -0.382110
vt -0.953451 0.047343
vt -0.953451 0.297343
vt -0.138913 0.297343
vt -0.138913 0.047343
vt -0.752431 -0.101978
vt -0.752431 0.094739
vt -0.712049 0.094739
vt -0.712049 -0.101978
vt -1.006664 0.231768
vt -1.006664 0.428485
vt -0.966281 0.428485
vt -0.966281 0.231768
vt -0.934849 0.828642
vt -0.934849 1.078642
vt -0.120311 1.078642
vt -0.120311 0.828642
vt -0.188160 0.195660
vt -0.188160 0.392377
vt -0.147777 0.392377
vt -0.147777 0.195660
vt -1.248494 -0.909177
vt -1.248494 -0.712459
vt -1.208112 -0.712459
vt -1.208112 -0.909177
vt -1.003058 1.293701
vt -1.003058 1.543701
vt -0.188519 1.543701
vt -0.188519 1.293701
vt -0.919853 -0.381013
vt -0.919853 -0.184296
vt -0.879470 -0.184296
vt -0.879470 -0.381013
vt -0.491999 0.002339
vt -0.491999 0.199056
vt -0.451616 0.199056
vt -0.451616 0.002339
vt -0.941050 0.121752
vt -0.941050 0.371752
vt -0.126511 0.371752
vt -0.126511 0.121752
vt -1.006399 0.500000
vt -1.006399 0.750000
vt -0.191860 0.750000
vt -0.191860 0.500000
s 0
usemtl Material.002
f 29/1/1 26/2/1 4/3/1 47/4/1
f 2/5/2 47/6/2 4/7/2 5/8/2
f 5/9/3 4/10/3 26/11/3 3/12/3
f 3/13/4 1/14/4 2/15/4 5/16/4
f 1/17/5 29/18/5 47/19/5 2/20/5
f 3/21/6 26/22/6 29/23/6 1/24/6
usemtl Material
f 56/1/1 8/2/1 10/3/1 34/4/1
f 7/5/2 34/6/2 10/7/2 11/8/2
f 11/9/3 10/10/3 8/11/3 9/12/3
f 9/13/4 6/14/4 7/15/4 11/16/4
f 6/17/5 56/18/5 34/19/5 7/20/5
f 9/21/6 8/22/6 56/23/6 6/24/6
usemtl Material.001
f 12/1/1 15/2/1 17/3/1 40/4/1
f 14/5/2 40/6/2 17/7/2 18/8/2
f 18/9/3 17/10/3 15/11/3 16/12/3
f 16/13/4 13/14/4 14/15/4 18/16/4
f 13/17/5 12/18/5 40/19/5 14/20/5
f 16/21/6 15/22/6 12/23/6 13/24/6
usemtl Material.003
f 19/25/3 20/26/3 21/27/3 15/28/3
f 15/29/6 21/30/6 68/31/6 12/32/6
f 12/33/5 68/34/5 23/35/5 22/36/5
f 22/37/2 23/38/2 20/39/2 19/40/2
f 15/41/4 12/42/4 22/43/4 19/44/4
f 68/45/1 21/46/1 20/47/1 23/48/1
usemtl Material.004
f 24/49/3 25/50/3 60/51/3 26/52/3
f 26/53/6 60/54/6 30/55/6 29/56/6
f 29/57/5 30/58/5 28/59/5 27/60/5
f 27/61/2 28/62/2 25/63/2 24/64/2
f 26/41/4 29/42/4 27/43/4 24/44/4
f 30/45/1 60/46/1 25/47/1 28/48/1
usemtl Material.005
f 10/49/3 31/50/3 33/51/3 32/52/3
f 32/53/6 33/54/6 37/55/6 36/56/6
f 36/57/5 37/58/5 35/59/5 34/60/5
f 34/61/2 35/62/2 31/63/2 10/64/2
f 32/41/4 36/42/4 34/43/4 10/44/4
f 37/45/1 33/46/1 31/47/1 35/48/1
usemtl Material.006
f 17/49/3 72/50/3 39/51/3 38/52/3
f 38/53/6 39/54/6 43/55/6 42/56/6
f 42/57/5 43/58/5 41/59/5 40/60/5
f 40/61/2 41/62/2 72/63/2 17/64/2
f 38/41/4 42/42/4 40/43/4 17/44/4
f 43/45/1 39/46/1 72/47/1 41/48/1
usemtl Material.007
f 4/49/3 44/50/3 46/51/3 45/52/3
f 45/53/6 46/54/6 50/55/6 49/56/6
f 49/57/5 50/58/5 48/59/5 47/60/5
f 47/61/2 48/62/2 44/63/2 4/64/2
f 45/41/4 49/42/4 47/43/4 4/44/4
f 50/45/1 46/46/1 44/47/1 48/48/1
usemtl Material.008
f 51/49/3 52/50/3 53/51/3 8/52/3
f 8/53/6 53/54/6 63/55/6 56/56/6
f 56/57/5 63/58/5 55/59/5 54/60/5
f 54/61/2 55/62/2 52/63/2 51/64/2
f 8/41/4 56/42/4 54/43/4 51/44/4
f 63/45/1 53/46/1 52/47/1 55/48/1
usemtl Material.009
f 57/1/1 59/2/1 61/3/1 58/4/1
f 48/5/2 58/6/2 61/7/2 44/8/2
f 44/9/3 61/10/3 59/11/3 60/12/3
f 60/13/4 30/14/4 48/15/4 44/16/4
f 30/17/5 57/18/5 58/19/5 48/20/5
f 60/21/6 59/22/6 57/23/6 30/24/6
usemtl Material.010
f 62/1/1 65/2/1 66/3/1 64/4/1
f 35/5/2 64/6/2 66/7/2 31/8/2
f 31/9/3 66/10/3 65/11/3 53/12/3
f 53/13/4 63/14/4 35/15/4 31/16/4
f 63/17/5 62/18/5 64/19/5 35/20/5
f 53/21/6 65/22/6 62/23/6 63/24/6
usemtl Material.011
f 67/1/1 70/2/1 71/3/1 69/4/1
f 41/5/2 69/6/2 71/7/2 72/8/2
f 72/9/3 71/10/3 70/11/3 21/12/3
f 21/13/4 68/14/4 41/15/4 72/16/4
f 68/17/5 67/18/5 69/19/5 41/20/5
f 21/21/6 70/22/6 67/23/6 68/24/6
usemtl Material.013
f 73/65/5 75/66/5 76/67/5 74/68/5
f 75/69/2 79/70/2 102/71/2 76/72/2
f 79/73/3 77/74/3 78/75/3 102/76/3
f 77/77/6 73/78/6 74/79/6 78/80/6
f 75/81/1 73/82/1 77/83/1 79/84/1
f 102/133/4 78/134/4 74/135/4 76/136/4
usemtl Material.016
f 80/85/5 82/86/5 103/87/5 81/88/5
f 82/69/2 84/70/2 105/71/2 103/72/2
f 84/89/3 83/90/3 104/91/3 105/92/3
f 83/77/6 80/78/6 81/79/6 104/80/6
f 82/93/1 80/94/1 83/95/1 84/96/1
f 105/133/4 104/134/4 81/135/4 103/136/4
usemtl Material.017
f 85/97/5 86/98/5 87/99/5 106/100/5
f 86/69/2 89/70/2 108/71/2 87/72/2
f 89/101/3 88/102/3 107/103/3 108/104/3
f 88/77/6 85/78/6 106/79/6 107/80/6
f 86/105/1 85/106/1 88/107/1 89/108/1
f 108/133/4 107/134/4 106/135/4 87/136/4
usemtl Material.018
f 90/109/5 92/110/5 93/111/5 91/112/5
f 92/69/2 95/70/2 96/71/2 93/72/2
f 95/113/3 94/114/3 109/115/3 96/116/3
f 94/77/6 90/78/6 91/79/6 109/80/6
f 92/117/1 90/118/1 94/119/1 95/120/1
f 96/133/4 109/134/4 91/135/4 93/136/4
usemtl Material.019
f 97/121/5 99/122/5 110/123/5 98/124/5
f 99/69/2 101/70/2 112/71/2 110/72/2
f 101/125/3 100/126/3 111/127/3 112/128/3
f 100/77/6 97/78/6 98/79/6 111/80/6
f 99/129/1 97/130/1 100/131/1 101/132/1
f 112/133/4 111/134/4 98/135/4 110/136/4
